#N canvas 0 0 1280 942 10;
#X obj 183 64 bng 15 250 50 0 empty empty empty 17 7 0 10 -262144 -1
-1;
#X obj 225 64 bng 15 250 50 0 empty empty empty 17 7 0 10 -262144 -1
-1;
#X obj 262 64 bng 15 250 50 0 empty empty empty 17 7 0 10 -262144 -1
-1;
#X obj 296 64 bng 15 250 50 0 empty empty empty 17 7 0 10 -262144 -1
-1;
#X obj 333 64 bng 15 250 50 0 empty empty empty 17 7 0 10 -262144 -1
-1;
#X obj 372 64 bng 15 250 50 0 empty empty empty 17 7 0 10 -262144 -1
-1;
#X obj 407 65 bng 15 250 50 0 empty empty empty 17 7 0 10 -262144 -1
-1;
#X obj 443 65 bng 15 250 50 0 empty empty empty 17 7 0 10 -262144 -1
-1;
#X obj 475 65 bng 15 250 50 0 empty empty empty 17 7 0 10 -262144 -1
-1;
#X obj 512 65 bng 15 250 50 0 empty empty empty 17 7 0 10 -262144 -1
-1;
#X msg 175 116 0;
#X msg 216 116 1;
#X msg 258 117 2;
#X msg 298 118 3;
#X msg 331 117 4;
#X msg 364 117 5;
#X msg 400 118 6;
#X msg 433 119 7;
#X msg 471 120 8;
#X msg 513 120 9;
#X floatatom 369 205 5 0 0 0 - - LEVELS;
#X obj 484 1168 select;
#X floatatom 508 1248 5 0 0 0 - - -;
#X floatatom 569 1250 5 0 0 0 - - -;
#X msg 453 1070 6;
#X msg 467 1025 2;
#X msg 518 1021 list 1 2 3 4 5 9 12 16 18 20;
#X obj 500 298 SpellCaster;
#X obj 678 117 s BOOSHCHANNEL;
#X obj 792 118 s PROJECTORCHANNEL;
#X msg 678 88 0;
#X msg 792 90 1;
#X obj 678 54 loadbang;
#X text 680 19 MIDI Channels for Projector and Flamethrowers;
#X obj 442 297 levels;
#X connect 0 0 10 0;
#X connect 1 0 11 0;
#X connect 2 0 12 0;
#X connect 3 0 13 0;
#X connect 4 0 14 0;
#X connect 5 0 15 0;
#X connect 6 0 16 0;
#X connect 7 0 17 0;
#X connect 8 0 18 0;
#X connect 9 0 19 0;
#X connect 10 0 20 0;
#X connect 11 0 20 0;
#X connect 12 0 20 0;
#X connect 13 0 20 0;
#X connect 14 0 20 0;
#X connect 15 0 20 0;
#X connect 16 0 20 0;
#X connect 17 0 20 0;
#X connect 18 0 20 0;
#X connect 19 0 20 0;
#X connect 21 0 22 0;
#X connect 21 1 23 0;
#X connect 24 0 21 0;
#X connect 25 0 21 0;
#X connect 26 0 21 1;
#X connect 30 0 28 0;
#X connect 31 0 29 0;
#X connect 32 0 30 0;
#X connect 32 0 31 0;
