#N canvas 1464 366 1245 598 10;
#X obj 84 226 list-find;
#X floatatom 135 258 5 0 0 0 - - -;
#X obj 81 130 list-l2s;
#X symbolatom 83 167 10 0 0 0 - - -;
#X obj 84 194 fromsymbol;
#X obj 396 153 textfile;
#X floatatom 484 222 5 0 0 0 - - -;
#X floatatom 605 223 5 0 0 0 - - -;
#X msg 525 114 rewind;
#X obj 525 136 until;
#X obj 396 64 trigger bang bang bang;
#X floatatom 347 221 5 0 0 0 - - -;
#X text 329 359 SpellNumbers;
#X text 606 358 Projection Notes;
#X text 442 360 Delays before boosh;
#X floatatom 83 258 5 0 0 0 - - -;
#X obj 135 311 sel 1;
#X obj 135 286 > 0;
#X obj 484 337 list-idx;
#X msg 484 248 add2 \$1;
#X msg 484 279 21 25 26 26 21 25 26 26 21 25 26 26;
#X msg 347 248 add2 \$1;
#X msg 347 278 1234 5235 5684 8154 1234 5235 5684 8154 1234 5235 5684
8154;
#X obj 396 179 unpack f f f;
#X msg 680 92 set;
#X msg 606 248 add2 \$1;
#X msg 606 275 22 23 33 34 22 23 33 34 22 23 33 34;
#X obj 608 331 list-idx;
#X obj 473 435 s CastSpell;
#X obj 472 397 pack f f f;
#X obj 347 336 list-idx;
#X obj 285 93 t b b b;
#X obj 396 35 loadbang;
#X obj 630 19 r reset;
#X obj 630 47 t b b;
#X text 38 56 Search The Array for a Pattern;
#X obj 373 5 bng 15 250 50 0 empty empty empty 17 7 0 10 -262144 -1
-1;
#X obj 513 170 delay 10;
#X obj 81 95 r LEVEL3;
#X obj 83 290 s idx3;
#X obj 135 345 s trig3;
#X obj 285 58 r trig3;
#X msg 526 90 read level3.txt cr;
#X obj 391 308 r idx3;
#X obj 529 306 r idx3;
#X obj 653 298 r idx3;
#X obj 718 204 s Loaded3;
#X msg 613 173 1;
#X connect 0 0 15 0;
#X connect 0 1 1 0;
#X connect 1 0 17 0;
#X connect 2 0 3 0;
#X connect 3 0 4 0;
#X connect 4 0 0 0;
#X connect 5 0 23 0;
#X connect 5 1 9 1;
#X connect 5 1 37 0;
#X connect 6 0 19 0;
#X connect 7 0 25 0;
#X connect 8 0 5 0;
#X connect 9 0 5 0;
#X connect 10 0 9 0;
#X connect 10 1 8 0;
#X connect 10 2 42 0;
#X connect 11 0 21 0;
#X connect 15 0 39 0;
#X connect 16 0 40 0;
#X connect 17 0 16 0;
#X connect 18 0 29 1;
#X connect 19 0 20 0;
#X connect 20 0 18 0;
#X connect 21 0 22 0;
#X connect 22 0 0 1;
#X connect 22 0 30 0;
#X connect 23 0 11 0;
#X connect 23 1 6 0;
#X connect 23 2 7 0;
#X connect 24 0 22 0;
#X connect 24 0 20 0;
#X connect 24 0 26 0;
#X connect 25 0 26 0;
#X connect 26 0 27 0;
#X connect 27 0 29 2;
#X connect 29 0 28 0;
#X connect 30 0 29 0;
#X connect 31 0 22 0;
#X connect 31 1 20 0;
#X connect 31 2 26 0;
#X connect 32 0 10 0;
#X connect 33 0 34 0;
#X connect 34 0 32 0;
#X connect 34 1 24 0;
#X connect 36 0 32 0;
#X connect 37 0 22 0;
#X connect 37 0 47 0;
#X connect 38 0 2 0;
#X connect 41 0 31 0;
#X connect 42 0 5 0;
#X connect 43 0 30 1;
#X connect 44 0 18 1;
#X connect 45 0 27 1;
#X connect 47 0 46 0;
