#N canvas 1341 162 1245 598 10;
#X obj 245 383 list-find;
#X floatatom 296 415 5 0 0 0 - - -;
#X obj 245 285 list-l2s;
#X symbolatom 245 315 10 0 0 0 - - -;
#X obj 245 342 fromsymbol;
#X obj 786 178 textfile;
#X floatatom 874 247 5 0 0 0 - - -;
#X floatatom 995 248 5 0 0 0 - - -;
#X msg 915 139 rewind;
#X obj 915 161 until;
#X obj 786 89 trigger bang bang bang;
#X floatatom 737 246 5 0 0 0 - - -;
#X text 719 384 SpellNumbers;
#X text 996 383 Projection Notes;
#X text 832 385 Delays before boosh;
#X floatatom 244 415 5 0 0 0 - - -;
#X obj 296 468 sel 1;
#X obj 296 443 > 0;
#X obj 874 362 list-idx;
#X msg 874 273 add2 \$1;
#X msg 874 304 21 25 26 26;
#X msg 737 273 add2 \$1;
#X msg 737 303 1234 5235 5684 8154;
#X obj 786 204 unpack f f f;
#X msg 1070 117 set;
#X msg 996 273 add2 \$1;
#X msg 996 300 22 23 33 34;
#X obj 998 356 list-idx;
#X obj 863 460 s CastSpell;
#X obj 862 422 pack f f f;
#X obj 737 361 list-idx;
#X obj 675 118 t b b b;
#X obj 786 60 loadbang;
#X obj 1020 44 r reset;
#X obj 1020 72 t b b;
#X text 360 26 Search The Array for a Pattern;
#X obj 763 30 bng 15 250 50 0 empty empty empty 17 7 0 10 -262144 -1
-1;
#X obj 903 195 delay 10;
#X msg 1003 198 1;
#X obj 723 415 s spellnumbers;
#X obj 330 347 r spellnumbers;
#X obj 220 -2 r LEVELS;
#X obj 246 56 list-lastx 10;
#X obj 245 245 list-splat;
#X obj 246 85 unpack f f f f f f f f f f;
#X obj 245 266 list-rev;
#X floatatom 152 124 5 0 0 0 - - -;
#X floatatom 192 124 5 0 0 0 - - -;
#X floatatom 231 124 5 0 0 0 - - -;
#X floatatom 268 124 5 0 0 0 - - -;
#X floatatom 306 124 5 0 0 0 - - -;
#X floatatom 343 124 5 0 0 0 - - -;
#X floatatom 379 124 5 0 0 0 - - -;
#X floatatom 415 124 5 0 0 0 - - -;
#X floatatom 451 124 5 0 0 0 - - -;
#X floatatom 487 124 5 0 0 0 - - -;
#X obj 245 202 pack f f f f f f f f f f;
#X msg 89 130 3;
#X obj 48 160 f;
#X floatatom 47 206 5 0 0 0 - - -;
#X obj 49 132 +;
#X msg 49 103 1;
#X obj 49 78 spigot;
#X obj 47 233 < 10;
#X floatatom 47 261 5 0 0 0 - - -;
#X obj 244 447 s idx;
#X obj 296 502 s trig;
#X obj 675 84 r trig;
#X obj 781 333 r idx;
#X obj 919 331 r idx;
#X obj 1043 323 r idx;
#X obj 1108 229 s Loaded;
#X msg 916 115 read spells.txt cr;
#X obj 72 183 t b;
#X text 93 251 Loop Control to go through the spell levels.;
#X obj 49 50 metro 2;
#X obj 220 26 t b f;
#X connect 0 0 15 0;
#X connect 0 1 1 0;
#X connect 1 0 17 0;
#X connect 2 0 3 0;
#X connect 3 0 4 0;
#X connect 4 0 0 0;
#X connect 5 0 23 0;
#X connect 5 1 9 1;
#X connect 5 1 37 0;
#X connect 6 0 19 0;
#X connect 7 0 25 0;
#X connect 8 0 5 0;
#X connect 9 0 5 0;
#X connect 10 0 9 0;
#X connect 10 1 8 0;
#X connect 10 2 72 0;
#X connect 11 0 21 0;
#X connect 15 0 65 0;
#X connect 16 0 66 0;
#X connect 17 0 16 0;
#X connect 18 0 29 1;
#X connect 19 0 20 0;
#X connect 20 0 18 0;
#X connect 21 0 22 0;
#X connect 22 0 30 0;
#X connect 22 0 39 0;
#X connect 23 0 11 0;
#X connect 23 1 6 0;
#X connect 23 2 7 0;
#X connect 24 0 22 0;
#X connect 24 0 20 0;
#X connect 24 0 26 0;
#X connect 25 0 26 0;
#X connect 26 0 27 0;
#X connect 27 0 29 2;
#X connect 29 0 28 0;
#X connect 30 0 29 0;
#X connect 31 0 22 0;
#X connect 31 1 20 0;
#X connect 31 2 26 0;
#X connect 32 0 10 0;
#X connect 33 0 34 0;
#X connect 34 0 32 0;
#X connect 34 1 24 0;
#X connect 36 0 32 0;
#X connect 37 0 22 0;
#X connect 37 0 38 0;
#X connect 38 0 71 0;
#X connect 40 0 0 1;
#X connect 41 0 76 0;
#X connect 42 0 44 0;
#X connect 43 0 45 0;
#X connect 44 0 46 0;
#X connect 44 1 47 0;
#X connect 44 2 48 0;
#X connect 44 3 49 0;
#X connect 44 4 50 0;
#X connect 44 5 51 0;
#X connect 44 6 52 0;
#X connect 44 7 53 0;
#X connect 44 8 54 0;
#X connect 44 9 55 0;
#X connect 45 0 2 0;
#X connect 46 0 56 0;
#X connect 47 0 56 1;
#X connect 48 0 56 2;
#X connect 49 0 56 3;
#X connect 50 0 56 4;
#X connect 51 0 56 5;
#X connect 52 0 56 6;
#X connect 53 0 56 7;
#X connect 54 0 56 8;
#X connect 55 0 56 9;
#X connect 56 0 43 0;
#X connect 57 0 58 0;
#X connect 58 0 60 1;
#X connect 58 0 59 0;
#X connect 58 0 73 0;
#X connect 59 0 43 1;
#X connect 59 0 63 0;
#X connect 60 0 58 0;
#X connect 61 0 60 0;
#X connect 62 0 61 0;
#X connect 63 0 64 0;
#X connect 64 0 62 1;
#X connect 67 0 31 0;
#X connect 68 0 30 1;
#X connect 69 0 18 1;
#X connect 70 0 27 1;
#X connect 72 0 5 0;
#X connect 73 0 46 0;
#X connect 75 0 62 0;
#X connect 76 0 57 0;
#X connect 76 0 75 0;
#X connect 76 1 42 0;
