#N canvas 1272 31 1440 858 10;
#X obj 147 269 list-find;
#X floatatom 198 301 5 0 0 0 - - -;
#X obj 796 188 textfile;
#X floatatom 884 257 5 0 0 0 - - -;
#X msg 795 143 rewind;
#X obj 795 165 until;
#X obj 796 83 trigger bang bang bang;
#X floatatom 747 256 5 0 0 0 - - -;
#X floatatom 146 301 5 0 0 0 - - -;
#X obj 198 354 sel 1;
#X obj 198 329 > 0;
#X obj 884 372 list-idx;
#X msg 884 283 add2 \$1;
#X msg 884 314 21 25 26 26;
#X msg 747 283 add2 \$1;
#X msg 747 313 1234 5235 5684 8154;
#X msg 990 89 set;
#X obj 796 60 loadbang;
#X obj 963 32 r reset;
#X obj 963 60 t b b;
#X obj 796 33 bng 15 250 50 0 empty empty empty 17 7 0 10 -262144 -1
-1;
#X obj 146 333 s idx;
#X obj 198 388 s trig;
#X obj 1001 269 r trig;
#X obj 929 341 r idx;
#X obj 258 102 notein;
#X obj 198 233 r InputNotes;
#X obj 747 341 s InputNotes;
#X text 882 392 OutputPin;
#X msg 796 108 read wiring.txt cr;
#X obj 796 214 unpack f f;
#X obj 291 136 ==;
#X msg 306 102 1;
#X obj 262 176 spigot;
#X obj 199 185 spigot;
#X obj 262 208 s velocity;
#X obj 988 370 r velocity;
#X obj 987 412 == 0;
#X obj 954 447 spigot;
#X obj 884 446 spigot;
#X obj 938 412 != 0;
#X obj 954 494 pinoff;
#X obj 884 493 pinon;
#X connect 0 0 8 0;
#X connect 0 1 1 0;
#X connect 1 0 10 0;
#X connect 2 0 30 0;
#X connect 2 1 5 1;
#X connect 3 0 12 0;
#X connect 4 0 2 0;
#X connect 5 0 2 0;
#X connect 6 0 5 0;
#X connect 6 1 4 0;
#X connect 6 2 29 0;
#X connect 7 0 14 0;
#X connect 8 0 21 0;
#X connect 9 0 22 0;
#X connect 10 0 9 0;
#X connect 11 0 39 0;
#X connect 11 0 38 0;
#X connect 12 0 13 0;
#X connect 13 0 11 0;
#X connect 14 0 15 0;
#X connect 15 0 27 0;
#X connect 16 0 15 0;
#X connect 16 0 13 0;
#X connect 17 0 6 0;
#X connect 18 0 19 0;
#X connect 19 0 17 0;
#X connect 19 1 16 0;
#X connect 20 0 17 0;
#X connect 23 0 13 0;
#X connect 24 0 11 1;
#X connect 25 0 34 0;
#X connect 25 1 33 0;
#X connect 25 2 31 0;
#X connect 26 0 0 1;
#X connect 29 0 2 0;
#X connect 30 0 7 0;
#X connect 30 1 3 0;
#X connect 31 0 33 1;
#X connect 31 0 34 1;
#X connect 32 0 31 1;
#X connect 33 0 35 0;
#X connect 34 0 0 0;
#X connect 36 0 37 0;
#X connect 36 0 40 0;
#X connect 37 0 38 1;
#X connect 38 0 41 0;
#X connect 39 0 42 0;
#X connect 40 0 39 1;
