#N canvas 1957 320 687 529 10;
#X obj 106 20 r CastSpell;
#X floatatom 93 124 5 0 0 0 - - -;
#X floatatom 145 125 5 0 0 0 - - -;
#X floatatom 202 124 5 0 0 0 - - -;
#X obj 105 77 unpack f f f;
#X obj 449 174 seq;
#X obj 449 206 midiparse;
#X obj 445 270 makenote;
#X obj 446 324 noteout;
#X obj 440 235 unpack f f;
#X obj 449 110 r PLAYPATTERN;
#X obj 121 170 delay;
#X obj 106 214 s PLAYPATTERN;
#X obj 202 178 makenote;
#X msg 224 149 1;
#X msg 264 149 10;
#X obj 202 215 noteout;
#X obj 268 189 r PROJECTORCHANNEL;
#X obj 520 293 r BOOSHCHANNEL;
#X text 67 239 Send Pattern to Sequencer;
#X text 210 238 This Side Triggers the Projector;
#X text 448 8 SEQUENCER;
#X msg 449 146 start;
#X obj 29 172 s LOADPATTERN;
#X obj 391 31 r LOADPATTERN;
#X obj 391 86 prepend set read;
#X obj 391 116 t b a;
#X msg 391 140 read 1234.mid;
#X obj 391 58 makefilename %d.mid;
#X floatatom 396 301 5 0 0 0 - - -;
#X obj 107 52 spigot;
#X obj 203 19 tgl 15 0 empty Enabled empty 17 7 0 10 -262144 -1 -1
0 1;
#X connect 0 0 30 0;
#X connect 1 0 11 0;
#X connect 1 0 23 0;
#X connect 2 0 11 1;
#X connect 3 0 13 0;
#X connect 4 0 1 0;
#X connect 4 1 2 0;
#X connect 4 2 3 0;
#X connect 5 0 6 0;
#X connect 6 0 9 0;
#X connect 7 0 8 0;
#X connect 7 0 29 0;
#X connect 7 1 8 1;
#X connect 9 0 7 0;
#X connect 9 1 7 1;
#X connect 10 0 22 0;
#X connect 11 0 12 0;
#X connect 13 0 16 0;
#X connect 13 1 16 1;
#X connect 14 0 13 1;
#X connect 15 0 13 2;
#X connect 17 0 16 2;
#X connect 18 0 8 2;
#X connect 22 0 5 0;
#X connect 24 0 28 0;
#X connect 25 0 26 0;
#X connect 26 0 27 0;
#X connect 26 1 27 0;
#X connect 27 0 5 0;
#X connect 28 0 25 0;
#X connect 30 0 4 0;
#X connect 31 0 30 1;
